<svg version="1.1" xmlns="http://www.w3.org/2000/svg" xmlns:xlink="http://www.w3.org/1999/xlink" width="108.88138" height="90.76243" viewBox="0,0,108.88138,90.76243"><g transform="translate(-199.55391,-63.72321)"><g data-paper-data="{&quot;isPaintingLayer&quot;:true}" stroke="#ffffff" stroke-linecap="butt" stroke-linejoin="miter" stroke-miterlimit="10" stroke-dasharray="" stroke-dashoffset="0" style="mix-blend-mode: normal"><path d="M307.93633,77.51674c0,3.88675 -4.4969,7.05901 -10.24775,7.3448l-3.24295,20.89125c-0.34591,2.48637 -3.5024,4.344 -7.26423,4.344c0,0 -24.28375,-13.71792 -35.82818,-13.71792c-10.47579,0 -30.54438,13.71792 -30.54438,13.71792c-3.76183,0 -6.87507,-1.85763 -7.26423,-4.344l-3.24296,-20.89125c-5.70761,-0.31437 -10.24775,-3.48664 -10.24775,-7.3448c0,-2.00053 1.16746,-3.85816 3.32944,-5.25853c2.16198,-1.37179 5.01577,-2.11485 8.04254,-2.08627c2.98353,0.05716 5.75084,0.88595 7.82634,2.34348c2.07549,1.42895 3.19971,3.37231 3.07,5.31569c-0.12972,1.68616 -1.08098,3.25801 -2.72409,4.51549c4.32395,3.5438 8.25873,5.20138 12.02056,5.00132c4.84282,-0.25721 9.98832,-3.60096 15.39325,-9.94549c-1.81606,-0.94311 -3.15649,-2.22916 -3.84831,-3.68669c-0.90803,-2.00053 -0.47564,-4.22969 1.25394,-6.23022c1.8593,-2.14342 5.44817,-3.34375 9.59915,-3.25801c0,0 0.04324,0 0.08648,0c4.15099,-0.08573 7.73987,1.11459 9.59916,3.25801c1.72958,2.00053 2.20521,4.20111 1.25394,6.23022c-0.69183,1.4861 -2.03224,2.74358 -3.8483,3.68669c5.40493,6.37311 10.55042,9.68828 15.39324,9.94549c3.76183,0.20006 7.69663,-1.45753 12.02057,-5.00132c-1.6431,-1.25747 -2.63762,-2.82933 -2.72409,-4.51549c-0.08648,-1.94338 0.99451,-3.85816 3.07001,-5.31569c2.07549,-1.4861 4.84281,-2.3149 7.82634,-2.34348c3.07,-0.05716 5.88056,0.6859 8.04254,2.08627c2.16197,1.40037 3.32944,3.258 3.19972,5.25853zM303.69886,77.48816c0,-1.22889 -0.73508,-2.37206 -2.0755,-3.22942c-1.29719,-0.85738 -3.07,-1.31464 -4.9293,-1.28606c-1.81606,0.02858 -3.50239,0.54301 -4.79958,1.45753c-1.29719,0.88595 -1.98901,2.08627 -1.90254,3.258c0.08648,1.31463 1.03775,2.54354 2.63761,3.37232c0.90803,0.48584 1.08098,1.34321 0.38915,1.97195c-5.70761,5.08706 -11.24226,7.40197 -16.90662,7.11617c-6.74536,-0.34295 -13.23127,-4.45832 -19.76042,-12.57476c-0.25944,-0.31437 -0.30268,-0.71447 -0.12972,-1.08601c0.17296,-0.37153 0.56211,-0.65731 1.08098,-0.82879c1.68633,-0.543 2.98352,-1.54327 3.54564,-2.74358c0.60535,-1.28606 0.30268,-2.65784 -0.86479,-4.00105c-1.03774,-1.22889 -3.15648,-1.88622 -5.66437,-1.85764c-0.17296,0.02858 -0.34591,0.02858 -0.51887,0c-2.50789,-0.02858 -4.62662,0.65732 -5.66437,1.85764c-1.16746,1.31463 -1.47015,2.715 -0.86479,4.00105c0.56212,1.17174 1.8593,2.20058 3.54564,2.74358c0.51887,0.17148 0.90803,0.45726 1.08099,0.82879c0.2162,0.34295 0.12972,0.74305 -0.12972,1.08601c-6.52916,8.11643 -13.01507,12.23181 -19.76042,12.57476c-5.62113,0.25721 -11.15578,-2.05769 -16.90663,-7.11617c-0.69183,-0.62874 -0.51887,-1.48611 0.38916,-1.97195c1.59986,-0.82879 2.55113,-2.05769 2.63761,-3.37232c0.04324,-1.17174 -0.60535,-2.37206 -1.90254,-3.258c-1.29719,-0.91452 -2.98352,-1.42895 -4.79958,-1.45753c-1.81606,-0.02858 -3.58887,0.42869 -4.9293,1.28606c-1.34042,0.85738 -2.0755,2.00053 -2.0755,3.22942c0,2.51496 3.07001,4.54406 6.83184,4.54406c0.30267,0 0.56211,0 0.82155,-0.02858c0.08648,0 0.17295,0 0.25943,0c0.47564,0 0.95127,0.11431 1.34042,0.31437c0.43239,0.25721 0.73507,0.60015 0.77831,0.97168l3.41591,22.17731c0.17296,1.02884 1.47015,1.80048 3.02676,1.80048c0,0 5.21851,-1.11093 10.93314,-2.93296c6.74805,-2.15152 14.52601,-5.06916 20.09634,-5.06916c11.67501,0 35.38631,8.00212 35.38631,8.00212c1.55662,0 2.8538,-0.77164 3.02676,-1.80048l3.41592,-22.17731c0.04324,-0.4001 0.34591,-0.74305 0.77831,-0.97168c0.47564,-0.22863 1.03775,-0.34295 1.59986,-0.28579c0.25944,0 0.56211,0.02858 0.82155,0.02858c3.76183,0 6.83182,-2.02911 6.74535,-4.57264z" fill="#ffffff" fill-rule="nonzero" stroke-width="1"/><path d="M230.93709,154.48564v-34.95782h-3.30445v-7.27341h6.60889v2.42447h8.26112v-2.42447h6.60889v2.42447h9.91334v-2.42447h6.60889v2.42447h8.26112v-2.42447h6.6089v7.27341h-3.30444v34.74802" fill="none" fill-rule="evenodd" stroke-width="8"/><path d="M269.02669,144.51393c-0.4866,0.8921 -1.08132,1.73013 -1.73012,2.50057c-2.86551,3.36562 -7.12322,5.50123 -11.89457,5.50123c-8.62356,0 -15.61163,-6.98806 -15.61163,-15.61163c0,-6.98806 4.58211,-12.89479 10.90786,-14.89525c0.95968,-0.29736 1.94638,-0.51363 2.97365,-0.62176c-0.58121,0.77044 -1.08133,1.59495 -1.50034,2.46001c-0.93265,1.95991 -1.43276,4.12255 -1.43276,6.3663c0,3.93331 1.52738,7.63685 4.31179,10.42127c2.78441,2.78441 6.48795,4.31178 10.42127,4.31178c0.2433,0 0.47308,0 0.71638,-0.01352c0.97319,-0.04055 1.91935,-0.18923 2.83847,-0.41902z" fill="#ffffff" fill-rule="nonzero" stroke-width="1"/><text transform="translate(223.83492,96.40243) scale(0.2672,0.2672)" font-size="40" xml:space="preserve" fill="#ffffff" fill-rule="nonzero" stroke="#ffffff" stroke-width="1" stroke-linecap="butt" stroke-linejoin="miter" stroke-miterlimit="10" stroke-dasharray="" stroke-dashoffset="0" font-family="Marker" font-weight="normal" text-anchor="start" style="mix-blend-mode: normal"><tspan x="0" dy="0">knight'slane</tspan></text></g></g></svg>