<svg version="1.1" xmlns="http://www.w3.org/2000/svg" xmlns:xlink="http://www.w3.org/1999/xlink" width="201.89218" height="196.97128" viewBox="0,0,201.89218,196.97128"><g transform="translate(-164.00002,-57.78496)"><g data-paper-data="{&quot;isPaintingLayer&quot;:true}" stroke-linecap="butt" stroke-linejoin="miter" stroke-miterlimit="10" stroke-dasharray="" stroke-dashoffset="0" style="mix-blend-mode: normal"><path d="M365.87392,82.66035c0,7.27303 -8.41479,13.20911 -19.176,13.74389l-6.06835,39.09254c-0.64729,4.6526 -6.55382,8.12868 -13.59311,8.12868c0,0 -45.44072,-25.66952 -67.04312,-25.66952c-19.60272,0 -57.15586,25.66952 -57.15586,25.66952c-7.03929,0 -12.86491,-3.47608 -13.59311,-8.12868l-6.06836,-39.09254c-10.6803,-0.58826 -19.17599,-6.52434 -19.17599,-13.74389c0,-3.74347 2.18461,-7.21955 6.23018,-9.83998c4.04557,-2.56695 9.38572,-3.95738 15.04952,-3.90391c5.58289,0.10696 10.76121,1.65782 14.64496,4.38521c3.88375,2.67391 5.98744,6.31042 5.74471,9.94694c-0.24273,3.15521 -2.02278,6.09651 -5.09742,8.44955c8.09114,6.63129 15.45407,9.73303 22.49336,9.35868c9.06207,-0.4813 18.69053,-6.73825 28.80446,-18.6104c-3.39828,-1.76478 -5.90654,-4.1713 -7.20111,-6.89868c-1.69914,-3.74347 -0.89003,-7.91477 2.34643,-11.65824c3.47919,-4.01086 10.19483,-6.25695 17.96232,-6.09651c0,0 0.08091,0 0.16182,0c7.76749,-0.16043 14.48314,2.08565 17.96233,6.09651c3.23646,3.74347 4.12648,7.86129 2.34643,11.65824c-1.29458,2.78086 -3.80283,5.1339 -7.20111,6.89868c10.11392,11.92563 19.74238,18.1291 28.80446,18.6104c7.03929,0.37435 14.40223,-2.72739 22.49337,-9.35868c-3.07463,-2.35304 -4.9356,-5.29434 -5.09742,-8.44955c-0.16182,-3.63652 1.86096,-7.21955 5.74471,-9.94694c3.88375,-2.78086 9.06207,-4.33173 14.64496,-4.38521c5.74471,-0.10696 11.00395,1.28348 15.04952,3.90391c4.04557,2.62043 6.23018,6.09651 5.98744,9.83998zM357.9446,82.60687c0,-2.29956 -1.3755,-4.43869 -3.88375,-6.04303c-2.42734,-1.60435 -5.74471,-2.46 -9.2239,-2.40652c-3.39828,0.05348 -6.55382,1.01609 -8.98116,2.72739c-2.42734,1.65782 -3.72192,3.90391 -3.5601,6.09651c0.16182,2.46 1.94187,4.75956 4.93559,6.31042c1.69914,0.90913 2.02278,2.51347 0.7282,3.68999c-10.6803,9.51911 -21.03696,13.85085 -31.63635,13.31607c-12.62218,-0.64174 -24.75889,-8.34259 -36.9765,-23.5304c-0.48547,-0.58826 -0.56638,-1.33695 -0.24273,-2.03217c0.32364,-0.69522 1.05185,-1.23 2.02279,-1.55087c3.15554,-1.01609 5.58289,-2.88782 6.63474,-5.1339c1.13276,-2.40652 0.56638,-4.97347 -1.61823,-7.48694c-1.94187,-2.29956 -5.90654,-3.52956 -10.5994,-3.47608c-0.32364,0.05348 -0.64729,0.05348 -0.97093,0c-4.69286,-0.05348 -8.65752,1.23 -10.59939,3.47608c-2.18461,2.46 -2.75099,5.08043 -1.61823,7.48694c1.05185,2.19261 3.47919,4.11782 6.63473,5.1339c0.97093,0.32087 1.69914,0.85565 2.02279,1.55087c0.40456,0.64174 0.24274,1.39043 -0.24273,2.03217c-12.21762,15.1878 -24.35432,22.88866 -36.9765,23.5304c-10.51848,0.4813 -20.87514,-3.85043 -31.63635,-13.31607c-1.29458,-1.17652 -0.97094,-2.78086 0.7282,-3.68999c2.99372,-1.55087 4.77378,-3.85043 4.9356,-6.31042c0.08091,-2.19261 -1.13276,-4.43869 -3.5601,-6.09651c-2.42734,-1.7113 -5.58288,-2.67391 -8.98116,-2.72739c-3.39828,-0.05348 -6.71564,0.80217 -9.2239,2.40652c-2.50825,1.60435 -3.88375,3.74347 -3.88375,6.04303c0,4.70608 5.74471,8.50303 12.784,8.50303c0.56638,0 1.05185,0 1.53732,-0.05348c0.16182,0 0.32364,0 0.48547,0c0.89003,0 1.78005,0.21391 2.50825,0.58826c0.80911,0.4813 1.37549,1.12304 1.4564,1.81826l6.392,41.49906c0.32364,1.92521 2.75099,3.36912 5.66379,3.36912c0,0 9.7651,-2.07881 20.45854,-5.48827c12.62723,-4.02601 27.18165,-9.48562 37.60507,-9.48562c21.84675,0 66.21629,14.97389 66.21629,14.97389c2.91281,0 5.34015,-1.44391 5.6638,-3.36912l6.392,-41.49906c0.08091,-0.74869 0.64729,-1.39043 1.45641,-1.81826c0.89003,-0.42783 1.94187,-0.64174 2.99372,-0.53478c0.48547,0 1.05185,0.05348 1.53732,0.05348c7.03929,0 12.78399,-3.79695 12.62218,-8.55651z" fill="#000000" fill-rule="nonzero" stroke="none" stroke-width="1"/><path d="M221.78986,254.75624v-88.64887h-6.18341v-18.4445h12.36683v6.14817h15.45853v-6.14817h12.36683v6.14817h18.55024v-6.14817h12.36683v6.14817h15.45853v-6.14817h12.36683v18.4445h-6.18341v88.11684" fill="none" fill-rule="evenodd" stroke="#000000" stroke-width="8"/><path d="M294.93588,219.25562c-0.91054,1.66932 -2.02342,3.23747 -3.23747,4.67915c-5.36206,6.29789 -13.32927,10.29414 -22.2576,10.29414c-16.13676,0 -29.2131,-13.07634 -29.2131,-29.2131c0,-13.07634 8.57424,-24.12926 20.41123,-27.87259c1.79579,-0.55644 3.64215,-0.96113 5.5644,-1.16347c-1.08759,1.44169 -2.02342,2.98454 -2.80749,4.60328c-1.7452,3.66745 -2.68103,7.71428 -2.68103,11.91287c0,7.36018 2.85808,14.29039 8.06838,19.50069c5.2103,5.2103 12.14051,8.06838 19.50069,8.06838c0.45527,0 0.88525,0 1.34052,-0.0253c1.82108,-0.07588 3.59157,-0.3541 5.31147,-0.78408z" fill="#000000" fill-rule="nonzero" stroke="none" stroke-width="1"/><text transform="translate(208.5,118) scale(0.5,0.5)" font-size="40" xml:space="preserve" fill="#000000" fill-rule="nonzero" stroke="none" stroke-width="1" stroke-linecap="butt" stroke-linejoin="miter" stroke-miterlimit="10" stroke-dasharray="" stroke-dashoffset="0" font-family="Marker" font-weight="normal" text-anchor="start" style="mix-blend-mode: normal"><tspan x="0" dy="0">knight'slane</tspan></text></g></g></svg>