<svg version="1.1" xmlns="http://www.w3.org/2000/svg" xmlns:xlink="http://www.w3.org/1999/xlink" width="323.19169" height="142.997" viewBox="0,0,323.19169,142.997"><g transform="translate(-64.07349,-132.002)"><g data-paper-data="{&quot;isPaintingLayer&quot;:true}" stroke-linecap="butt" stroke-linejoin="miter" stroke-miterlimit="10" stroke-dasharray="" stroke-dashoffset="0" style="mix-blend-mode: normal"><g><path d="M295.68923,172.47632c0.68945,0.40692 1.12326,0.97829 1.12326,1.60842c0,0.6236 -0.43328,1.19465 -1.12326,1.60158c-0.7021,0.41407 -1.67092,0.6696 -2.72829,0.6696c-1.05737,0 -2.02514,-0.25553 -2.72724,-0.6696c-0.69051,-0.40661 -1.12431,-0.97767 -1.12431,-1.60158c0,-0.63043 0.43381,-1.20149 1.12431,-1.60842c0.7021,-0.41376 1.66987,-0.6696 2.72724,-0.6696c1.05737,0 2.02619,0.25584 2.72829,0.6696M200.59799,174.0322c0,0.61738 -0.41114,1.17538 -1.08004,1.5823l-0.02214,0.00653v0.00653l-0.02214,0.01337l-0.02214,0.01306l-0.01107,0.00653h-0.01107l-0.02214,0.01337v0.00653l-0.03321,0.01958h-0.01107l-0.01107,0.01306l-0.04428,0.01958h-0.01107c-0.67891,0.36123 -1.56972,0.57137 -2.54908,0.57137c-1.0695,0 -2.02672,-0.24962 -2.72777,-0.66308c-0.70105,-0.41407 -1.12484,-0.9786 -1.12484,-1.60904c0,-0.62328 0.42379,-1.19465 1.12484,-1.60158c0.70105,-0.41345 1.6588,-0.6696 2.72777,-0.6696c1.05737,0 2.02566,0.25615 2.72671,0.6696c0.69103,0.40661 1.12431,0.97829 1.12379,1.60189zM250.69928,251.69749c0.04533,-0.40692 0.12282,-0.87322 0.52341,-1.2475c0.40007,-0.38734 1.20233,-0.74825 2.73884,-1.01093l0.11122,-0.01958l0.11069,-0.01958l0.11227,-0.01368v-0.00653l0.12176,-0.01306l0.12282,-0.01958l0.12176,-0.01306l0.12176,-0.01958l0.13441,-0.01306l0.13283,-0.01958l0.14548,-0.01306l0.1439,-0.01306v-0.00653l0.14495,-0.01306l0.1439,-0.01306l0.14495,-0.01306l0.1555,-0.02021l0.15655,-0.01306l0.16604,-0.01306l0.15655,-0.01306l0.16604,-0.01306l0.16762,-0.01306h0.01107l0.16657,-0.01306l0.16709,-0.01337l0.17763,-0.01306l0.17869,-0.01306h0.01107l0.17763,-0.01306l0.17869,-0.01306l0.18923,-0.01306l0.1887,-0.01368l0.18923,-0.00653v-0.00653l0.19977,-0.00653l0.18976,-0.01306l0.20083,-0.00653v-0.00653l0.19977,-0.00653l0.20083,-0.01306l0.20083,-0.00653l0.21031,-0.01306l0.20083,-0.00653h0.01107l0.20083,-0.01306h0.01107l0.19977,-0.00653l0.2119,-0.01306h0.01107l0.21137,-0.00653l0.21084,-0.01306l0.22297,-0.00653l0.22297,-0.00653l0.21031,-0.00653h0.01107l0.2119,-0.01306h0.01107l0.2119,-0.00653h0.01107l0.22297,-0.00684l0.22191,-0.00653h0.01107l0.22297,-0.00653l0.22297,-0.00653h0.01107l0.22297,-0.00653l0.23245,-0.00653l0.23403,-0.00653l0.23403,-0.00653l0.23351,-0.00653l0.23298,-0.00653l0.23403,-0.00653l0.23351,-0.00653h0.01107l0.23351,-0.00653h0.23298h0.01107l0.23351,-0.00653l0.23403,-0.00653h0.01107h0.23351l0.28885,-0.00653h0.0116l0.27726,-0.00653h0.01107l0.28938,-0.00653h0.01107h0.28938l0.28991,-0.00653h0.01107l0.28991,-0.00653h0.28938h0.01107l0.28938,-0.00653h0.30045h0.28938h0.01107l0.28938,-0.00653h0.28991h0.01107h0.28991l0.28938,-0.00653h0.01107h0.28938h0.28991h0.58983h0.28991h0.28938h0.28991h0.27778h0.01107h0.27831h0.01107l0.27884,0.00653h0.27778h0.01107h0.26724h0.01107h0.27884l0.27778,0.00653h0.27778h0.26724h0.01107l0.26777,0.00653h0.26724l0.26724,0.00653h0.26777l0.26724,0.00653l0.25512,0.00653l0.25565,0.00653h0.01107h0.2451l0.25617,0.00653l0.2451,0.00653h0.01107l0.24405,0.00653h0.2451l0.23403,0.00653h0.01107l0.23403,0.00653l0.23298,0.00653l0.23351,0.00653l0.22349,0.00653l0.22244,0.00653v0.00653l0.22244,0.00653l0.22297,0.00653l0.21137,0.00653l0.21084,0.00653l0.20083,0.00653l0.20083,0.01368l0.19977,0.00653l0.19028,0.00715l0.18923,0.01306l0.1887,0.00653l0.17869,0.01306l0.16657,0.00653l0.17816,0.01306l0.16657,0.00653l0.15655,0.01306l0.15497,0.00653v0.00653h0.03321h0.02214h0.0116c1.29141,0.09233 2.38199,0.23626 3.22852,0.43956c0.7564,0.17719 1.30248,0.39449 1.63613,0.66991c0.94615,0.77468 0.06694,6.52568 -0.6457,11.13457c-0.36739,2.37004 -0.68998,4.45781 -0.67891,5.53464c0.01054,0.57106 0.01054,1.00409 -0.11175,1.14865c-0.03373,0.03917 -0.08908,-0.08518 -0.46754,-0.12435c-4.18468,-0.49241 -8.97237,-2.10798 -13.8813,-3.7624c-4.72022,-1.59505 -9.57433,-3.22989 -14.36096,-4.04435l-1.85857,-0.28848c-2.0594,-0.30869 -3.89636,-0.58443 -4.57527,-1.16854c-0.85707,-0.7352 -0.42326,-3.88675 -0.16709,-5.81038zM278.64478,254.74521c0.17922,0.23688 0.16762,0.49925 0.02267,0.72898c-0.1555,0.22351 -0.43381,0.41376 -0.83441,0.51852l-0.02214,0.00653c-0.41272,0.09854 -0.8576,0.09854 -1.23606,0.00653c-0.37846,-0.08549 -0.70105,-0.25615 -0.87974,-0.48588l-0.01107,-0.01306c-0.17869,-0.2431 -0.16709,-0.50547 -0.02214,-0.7352c0.1439,-0.21698 0.44488,-0.40754 0.83493,-0.51883h0.02267c0.41167,-0.10538 0.85654,-0.10538 1.23553,-0.01306c0.37846,0.08487 0.70105,0.25584 0.87868,0.4921zM278.75653,252.73609c-0.99043,-0.23004 -2.13741,-0.2431 -3.19478,0.00653l-0.25617,0.06559c-1.03576,0.2891 -1.79268,0.79426 -2.18221,1.37869c-0.38953,0.58474 -0.42379,1.25434 0,1.88477l0.12176,0.15046c0.49021,0.61085 1.33568,1.05725 2.32717,1.28698c0.99096,0.23035 2.13688,0.24341 3.19531,-0.00653l0.2451,-0.06528c1.04578,-0.28942 1.8027,-0.78804 2.19275,-1.37931c0.38953,-0.58412 0.42326,-1.26025 -0.01107,-1.88415l-0.10015,-0.14424c-0.48915,-0.61085 -1.34675,-1.06378 -2.33771,-1.29351zM292.82811,206.39263c0.63463,-3.18388 1.8027,-6.33543 3.28333,-8.49532l0.51287,-0.67613c0.72319,-0.88659 1.72521,-1.8055 2.94968,-2.38309c1.03523,-0.48588 2.27077,-0.70908 3.68499,-0.37397l0.27831,0.0715c2.83846,0.80825 4.3639,6.15233 4.80877,12.2313c0.54555,7.38615 -0.6457,15.73692 -3.08409,18.7175c-3.09516,3.80157 -6.90191,5.82996 -10.5637,7.78624c-5.61103,2.99425 -10.90948,5.83027 -13.29252,13.99079l-0.17711,-0.00653l-0.13441,-0.00653h-0.0448c-6.95725,-0.37428 -19.31311,-0.29563 -26.10433,0.41345c0.0116,-2.01534 0.10015,-4.54951 0.4006,-7.08368c0.33418,-2.90876 0.96882,-5.79048 2.1042,-7.77318l0.22297,-0.3547c1.78056,-2.7182 7.11275,-7.65505 13.26933,-11.68604c5.95575,-3.89359 12.56828,-6.90027 17.08768,-6.00063l0.20083,0.03917l0.02161,0.00653l0.0448,0.01306h0.02214l0.04428,0.01306l0.02267,0.00653l0.02161,0.00653l0.02372,0.00653h0.01107l0.02214,0.00653l0.02267,0.00653l0.02161,0.00653l0.02267,0.00653h0.02161l0.02267,0.00653l0.01107,0.00653l0.02161,0.00653l0.02267,0.00653l0.02161,0.00653h0.02267l0.01107,0.00653l0.02161,0.00653c2.3493,0.6895 2.47212,2.01565 1.48169,3.5392l-0.02267,0.03264c-2.33718,3.53858 -10.0192,8.05514 -12.99102,9.79536l-0.70158,0.41998c-0.53448,0.31553 -0.53448,0.8269 0,1.14243c0.53448,0.30869 1.40263,0.30869 1.93764,0l0.70105,-0.41998c3.07249,-1.81234 11.03177,-6.48682 13.59192,-10.35367l0.02214,-0.03917c1.08004,-1.65442 1.2466,-3.1643 -0.13336,-4.30704c-0.52341,-2.21927 -0.39006,-5.28471 0.23403,-8.34393zM240.30109,251.69811c-0.04428,-0.40692 -0.12176,-0.87322 -0.52236,-1.2475c-0.40165,-0.38734 -1.20233,-0.74825 -2.73884,-1.01093l-0.11122,-0.01958l-0.11175,-0.01958l-0.11122,-0.01368v-0.00653l-0.12282,-0.01306l-0.11069,-0.01958l-0.13283,-0.01306l-0.12282,-0.01958l-0.13336,-0.01306l-0.13388,-0.01958l-0.1439,-0.01306l-0.13336,-0.01306v-0.00653l-0.14495,-0.01306l-0.1555,-0.01306l-0.14495,-0.01306l-0.1555,-0.02021l-0.15602,-0.01306l-0.16657,-0.01306l-0.15602,-0.01306l-0.16657,-0.01306l-0.16762,-0.01306l-0.17763,-0.01306l-0.16709,-0.01337l-0.17869,-0.01306l-0.17763,-0.01306l-0.18976,-0.01306l-0.17763,-0.01306l-0.18923,-0.01306l-0.18976,-0.01368l-0.1887,-0.00653v-0.00653l-0.18976,-0.00653h-0.01107l-0.1887,-0.01306l-0.20083,-0.00653v-0.00653l-0.20083,-0.00653l-0.19977,-0.01306l-0.20083,-0.00653l-0.2119,-0.01306l-0.19977,-0.00653h-0.01107l-0.20083,-0.01306l-0.2119,-0.00653l-0.21084,-0.01306h-0.01107l-0.2119,-0.00653l-0.2119,-0.01306l-0.22191,-0.00653l-0.2119,-0.00653h-0.01107l-0.2119,-0.00653h-0.01107l-0.21084,-0.01306h-0.01107l-0.2119,-0.00653h-0.01107l-0.22297,-0.00684l-0.22297,-0.00653l-0.22191,-0.00653h-0.01107l-0.22297,-0.00653l-0.23403,-0.00653l-0.23403,-0.00653l-0.22191,-0.00653h-0.01107l-0.22297,-0.00653h-0.01107l-0.23403,-0.00653l-0.23403,-0.00653l-0.23298,-0.00653l-0.23403,-0.00653h-0.01107l-0.22297,-0.00653h-0.01107h-0.23403l-0.23298,-0.00653h-0.01107l-0.23403,-0.00653h-0.23403h-0.01107l-0.28938,-0.00653l-0.28938,-0.00653h-0.01107l-0.28938,-0.00653h-0.28938h-0.01107l-0.28938,-0.00653h-0.01107l-0.28885,-0.00653h-0.28938h-0.01107l-0.28938,-0.00653h-0.28938h-0.01107h-0.28938h-0.01107l-0.28938,-0.00653h-0.28938h-0.01107h-0.28938l-0.28938,-0.00653h-0.01107h-0.28938h-0.28938h-0.57876h-0.01107h-0.28938h-0.27831h-0.01107h-0.28938h-0.27726h-0.01107h-0.27831l-0.28938,0.00653h-0.27831h-0.27831h-0.01107h-0.26724h-0.01107l-0.27831,0.00653h-0.26724h-0.01107h-0.26724l-0.26619,0.00653h-0.01107h-0.26724l-0.26724,0.00653h-0.26724l-0.26724,0.00653l-0.25617,0.00653l-0.25512,0.00653h-0.25617l-0.25617,0.00653l-0.2451,0.00653h-0.01107l-0.2451,0.00653h-0.24405l-0.23403,0.00653l-0.2451,0.00653l-0.23403,0.00653l-0.22191,0.00653h-0.01107l-0.22297,0.00653l-0.22297,0.00653v0.00653l-0.22297,0.00653l-0.21084,0.00653h-0.01107l-0.2119,0.00653l-0.20083,0.00653l-0.21084,0.00653l-0.2003,0.01368l-0.20083,0.00653l-0.1887,0.00653l-0.18976,0.01306l-0.17763,0.00653h-0.01107l-0.17869,0.01306l-0.16657,0.00653l-0.17816,0.01306l-0.15655,0.00653h-0.01107l-0.1555,0.01306l-0.15602,0.00653v0.00653h-0.03321h-0.02214h-0.01107c-1.29088,0.09233 -2.38146,0.23626 -3.22799,0.43956c-0.74533,0.17719 -1.30248,0.39449 -1.63613,0.66991c-0.94615,0.77468 -0.06642,6.52568 0.6457,11.13457c0.36739,2.37004 0.68998,4.45781 0.67891,5.53464c-0.01107,0.57106 -0.01107,1.00409 0.11069,1.14865c0.03321,0.03917 0.08961,-0.08518 0.46807,-0.12435c4.18521,-0.49241 8.97185,-2.10798 13.8813,-3.7624c4.71969,-1.59505 9.57275,-3.22989 14.36044,-4.04435l1.8591,-0.28848c2.05887,-0.30869 3.89583,-0.58443 4.57474,-1.16854c0.85707,-0.7352 0.42326,-3.88675 0.16709,-5.81038zM212.35453,254.74521c-0.17763,0.23688 -0.16657,0.49925 -0.02214,0.72898c0.15602,0.22351 0.4454,0.41376 0.83493,0.51852l0.02214,0.00653c0.4122,0.09854 0.8576,0.09854 1.23606,0.00653c0.37793,-0.08549 0.70105,-0.25615 0.87921,-0.48588l0.01107,-0.01306c0.17711,-0.2431 0.17711,-0.50547 0.02214,-0.7352c-0.14548,-0.21698 -0.43486,-0.40754 -0.83546,-0.51883h-0.02214c-0.41167,-0.10538 -0.846,-0.10538 -1.23553,-0.01306c-0.37846,0.08487 -0.70105,0.25584 -0.87974,0.4921zM212.24278,252.73609c1.0015,-0.23004 2.13741,-0.2431 3.19478,0.00653l0.25617,0.06559c1.03523,0.2891 1.80375,0.79426 2.18221,1.37869c0.38953,0.58474 0.42274,1.25434 0,1.88477l-0.11122,0.15046c-0.50128,0.61085 -1.34781,1.05725 -2.33824,1.28698c-0.99043,0.23035 -2.13794,0.24341 -3.19478,-0.00653l-0.2451,-0.06528c-1.04578,-0.28942 -1.80322,-0.78804 -2.19275,-1.37931c-0.38953,-0.58412 -0.41167,-1.26025 0.01107,-1.88415l0.10068,-0.14424c0.48915,-0.61085 1.34675,-1.06378 2.33718,-1.29351zM198.18227,206.39263c-0.6457,-3.18388 -1.80322,-6.33543 -3.2944,-8.49532l-0.51235,-0.67613c-0.72319,-0.88659 -1.72469,-1.8055 -2.94968,-2.38309c-1.03629,-0.48588 -2.27182,-0.70908 -3.67392,-0.37397l-0.28938,0.0715c-2.82792,0.80825 -4.3639,6.15233 -4.80877,12.2313c-0.54608,7.38615 0.6457,15.73692 3.08356,18.7175c3.10517,3.80157 6.90191,5.82996 10.5637,7.78624c5.61103,2.99425 10.90948,5.83027 13.30359,13.99079l0.16657,-0.00653l0.13388,-0.00653h0.04428c6.95725,-0.37428 19.31364,-0.29563 26.10433,0.41345c-0.01107,-2.01534 -0.1012,-4.54951 -0.4006,-7.08368c-0.33471,-2.90876 -0.96935,-5.79048 -2.1042,-7.77318l-0.22297,-0.3547c-1.78161,-2.7182 -7.10273,-7.65505 -13.26933,-11.68604c-5.95575,-3.89359 -12.56775,-6.90027 -17.0882,-6.00063l-0.19977,0.03917l-0.02214,0.00653l-0.04428,0.01306h-0.02214l-0.04533,0.01306l-0.02214,0.00653l-0.01107,0.00653l-0.02214,0.00653h-0.02214l-0.02214,0.00653l-0.02214,0.00653l-0.02214,0.00653l-0.02214,0.00653h-0.02214l-0.01107,0.00653l-0.02214,0.00653l-0.02214,0.00653l-0.02214,0.00653l-0.02319,0.00653h-0.02214l-0.01107,0.00653l-0.02214,0.00653c-2.34825,0.6895 -2.47159,2.01565 -1.48011,3.5392l0.02214,0.03264c2.33771,3.53858 10.0192,8.05514 12.99102,9.79536l0.70105,0.41998c0.53448,0.31553 0.53448,0.8269 0,1.14243c-0.53396,0.30869 -1.4021,0.30869 -1.93711,0l-0.70105,-0.41998c-3.07249,-1.81234 -11.03177,-6.48682 -13.59192,-10.35367l-0.02267,-0.03917c-1.07951,-1.65442 -1.24608,-3.1643 0.13388,-4.30704c0.52341,-2.21927 0.38953,-5.28471 -0.22349,-8.34393zM283.16523,202.88576c0,0.47966 -3.93009,1.06378 -10.26431,1.61525c-6.99099,0.61023 -16.68708,0.99166 -27.39573,0.99166c-10.72025,0 -20.41634,-0.38112 -27.4068,-0.99166c-6.33527,-0.55147 -10.26431,-1.13559 -10.26431,-1.61525c0,-0.47873 3.92904,-1.06316 10.26431,-1.61432c7.00153,-0.61054 16.68655,-0.99135 27.4068,-0.99135c10.70918,0 20.40474,0.3805 27.39573,0.99135c6.33422,0.55147 10.26431,1.13559 10.26431,1.61432zM244.82575,166.65941l-0.04428,-0.00653l-0.18923,-0.0199l-0.04428,-0.00653l-0.04428,-0.00653c-0.7021,-0.10507 -1.32567,-0.31491 -1.81482,-0.6037c-0.68998,-0.40754 -1.12484,-0.9786 -1.12484,-1.60873c0,-0.6236 0.43486,-1.19434 1.13591,-1.60189l0.05535,-0.03917c0.68998,-0.38734 1.62559,-0.63043 2.66135,-0.63043c1.06791,0 2.02514,0.25615 2.72618,0.6696c0.7021,0.40723 1.12484,0.97829 1.12484,1.60189c0,0.63043 -0.42274,1.20118 -1.12484,1.60873c-0.45595,0.2689 -1.02364,0.47251 -1.65827,0.57728l-0.46701,0.05938l-0.0116,0.00653h-0.01107h-0.01107l-0.56716,0.02642l-0.44593,-0.0199zM269.40622,166.12752c-0.75692,0 -1.36942,0.36123 -1.36942,0.80794c0,0.4464 0.6125,0.80732 1.36942,0.80732h4.58634c0.75692,0 1.36942,-0.36091 1.36942,-0.80732c0,-0.44671 -0.6125,-0.80794 -1.36942,-0.80794zM221.49294,167.74278c0.75745,0 1.36994,-0.36091 1.36994,-0.80732c0,-0.44671 -0.6125,-0.80794 -1.36994,-0.80794h-4.58581c-0.74638,0 -1.35782,0.36123 -1.35782,0.80794c0,0.4464 0.61144,0.80732 1.35782,0.80732zM200.23165,167.74278c0.7564,0 1.36889,-0.36091 1.36889,-0.80732c0,-0.44671 -0.6125,-0.80794 -1.36889,-0.80794h-8.65031c-0.7564,0 -1.36889,0.36123 -1.36889,0.80794c0,0.4464 0.6125,0.80732 1.36889,0.80732zM244.08043,140.66799c0,0.4464 0.6125,0.80763 1.36994,0.80763c0.75692,0 1.36889,-0.36123 1.36889,-0.80763v-7.85867c0,-0.44671 -0.61197,-0.80732 -1.36889,-0.80732c-0.75745,0 -1.36994,0.3606 -1.36994,0.80732zM285.85821,153.08953c-0.66784,0.21667 -0.91295,0.70224 -0.5561,1.09642c0.36739,0.38703 1.1902,0.53811 1.8591,0.32175l12.2789,-3.92654c0.65677,-0.20983 0.91295,-0.70224 0.5561,-1.08989c-0.36739,-0.39387 -1.1902,-0.53811 -1.8591,-0.32796zM203.73795,154.50739c0.66784,0.21636 1.50278,0.06528 1.8591,-0.32175c0.35632,-0.39387 0.11122,-0.87975 -0.55662,-1.09642l-12.27837,-3.92591c-0.65677,-0.20983 -1.49223,-0.0659 -1.84803,0.32796c-0.35632,0.38765 -0.11122,0.88006 0.54555,1.08989zM266.89035,144.81679c-0.38953,0.38081 -0.18976,0.87291 0.45595,1.10948c0.64518,0.22942 1.48064,0.1116 1.88124,-0.26268l4.31909,-4.15564c0.4006,-0.38081 0.20083,-0.87291 -0.44488,-1.10979c-0.64518,-0.22942 -1.48064,-0.11129 -1.88124,0.26299zM221.68323,145.6639c0.389,0.37428 1.23553,0.4921 1.87017,0.26268c0.64518,-0.23626 0.846,-0.72836 0.45595,-1.10948l-4.32964,-4.15564c-0.39006,-0.37428 -1.23553,-0.49241 -1.88124,-0.26299c-0.6457,0.23657 -0.84653,0.72867 -0.44593,1.10979zM244.08043,152.1243c0,0.43987 0.6125,0.80079 1.36994,0.80079c0.75692,0 1.36889,-0.36091 1.36889,-0.80079v-4.43138c0,-0.44702 -0.61197,-0.80794 -1.36889,-0.80794c-0.75745,0 -1.36994,0.36091 -1.36994,0.80794zM266.52296,158.8337c-0.65677,0.21667 -0.87974,0.71561 -0.50128,1.09642c0.37846,0.38734 1.21339,0.51883 1.87017,0.29532l6.50131,-2.21895c0.65677,-0.21667 0.87974,-0.7153 0.50022,-1.09642c-0.37793,-0.38734 -1.21234,-0.51852 -1.86911,-0.29532zM223.01838,160.22544c0.6457,0.22351 1.48064,0.09202 1.8591,-0.29532c0.37846,-0.3805 0.15655,-0.87975 -0.48915,-1.09642l-6.51238,-2.21895c-0.6457,-0.2232 -1.49171,-0.09202 -1.8591,0.29532c-0.37846,0.38081 -0.15655,0.87975 0.49021,1.09642zM256.24705,154.29724c-0.36686,0.38703 -0.14443,0.87975 0.50128,1.09611c0.65677,0.22351 1.49118,0.09233 1.8591,-0.29501l2.2929,-2.34361c0.37846,-0.38112 0.1555,-0.87353 -0.50128,-1.09642c-0.64518,-0.21667 -1.47958,-0.0858 -1.85857,0.29501zM232.29173,155.09834c0.37793,0.38734 1.21339,0.51852 1.8591,0.29501c0.65677,-0.21636 0.87974,-0.70908 0.50022,-1.09611l-2.2929,-2.34392c-0.36686,-0.3805 -1.20233,-0.51168 -1.8591,-0.29501c-0.64518,0.22258 -0.86867,0.71499 -0.50022,1.09642zM290.66856,166.12752c-0.75798,0 -1.36994,0.36123 -1.36994,0.80794c0,0.4464 0.61197,0.80732 1.36994,0.80732h8.64873c0.75798,0 1.37047,-0.36091 1.37047,-0.80732c0,-0.44671 -0.6125,-0.80794 -1.37047,-0.80794zM246.62212,227.99838c-0.51076,1.07031 -0.93456,2.47511 -1.26874,4.0313c-0.33366,-1.55619 -0.74533,-2.9613 -1.26874,-4.0313c-2.43733,-5.04192 -22.68711,-14.94919 -22.75352,-14.9753c-0.56769,-0.28227 -1.43636,-0.23626 -1.91444,0.09854c-0.47914,0.34133 -0.4006,0.85332 0.17763,1.13559c0.0564,0.02611 19.65995,9.61785 21.86377,14.18073c2.28184,4.70712 2.52694,16.74133 2.52694,16.7805v0.01958v0.01958v0.01958h0.01107v0.01958v0.02021l0.01107,0.01958v0.01958l0.01107,0.01958v0.01958l0.01107,0.01958l0.01107,0.01958l0.01107,0.01958l0.01107,0.01958l0.01107,0.01958l0.01107,0.0199l0.01107,0.01337l0.01107,0.01958l0.01107,0.01958l0.02319,0.01306l0.01107,0.01958l0.01107,0.01958h0.01107l0.01107,0.01306l0.02214,0.01958l0.01107,0.01306l0.02214,0.01958l0.02214,0.01368l0.01107,0.01306h0.01107l0.01107,0.01958l0.02214,0.01306l0.02214,0.01306l0.02214,0.01306l0.02214,0.01306l0.02214,0.01958l0.02214,0.01306h0.01107l0.02319,0.00653l0.02214,0.01275l0.02214,0.01337l0.03321,0.01306l0.02214,0.01368l0.02214,0.00653h0.01107l0.02214,0.01275l0.02214,0.01337l0.03321,0.00653l0.03321,0.01306l0.02214,0.00653l0.03426,0.00653l0.03321,0.01275l0.02214,0.00653l0.03321,0.00653l0.03321,0.00653l0.03321,0.00653l0.03321,0.00653l0.02214,0.00653h0.01107l0.02214,0.00653h0.01107h0.02214l0.03426,0.00653h0.01107l0.02214,0.00653h0.03321h0.03321h0.01107l0.03321,0.00653h0.03321h0.03321h0.03321h0.03321h0.03321h0.03426h0.01107h0.02214h0.01107h0.03321l0.03321,-0.00653h0.03321h0.03321l0.03321,-0.00653l0.03321,-0.00653h0.03321l0.03426,-0.00653l0.03321,-0.00653l0.02214,-0.00653h0.01107l0.02214,-0.00653l0.03321,-0.00653l0.03321,-0.00653l0.03321,-0.00653l0.02214,-0.01275l0.03321,-0.00653l0.03321,-0.00653l0.02319,-0.01306l0.03321,-0.00653l0.02214,-0.01337l0.03321,-0.01275l0.02214,-0.00653l0.02214,-0.01368h0.01107l0.02214,-0.01306l0.02214,-0.01337l0.02214,-0.01275h0.01107l0.02214,-0.00653l0.02214,-0.01306l0.02214,-0.01958l0.02319,-0.01306l0.02214,-0.01306l0.02214,-0.01306l0.02267,-0.01306l0.02214,-0.01958l0.02214,-0.01306l0.01107,-0.01368h0.01107l0.01107,-0.01958l0.02267,-0.01306l0.01107,-0.01958l0.02214,-0.01306l0.01107,-0.01958l0.01107,-0.01958h0.01107l0.01107,-0.01306l0.01107,-0.01958l0.01107,-0.01958l0.01107,-0.01337h0.01107l0.01107,-0.0199v-0.01958h0.01212v-0.01958h0.01107v-0.01958l0.01107,-0.01958l0.01107,-0.01958l0.01107,-0.01958v-0.01958l0.01107,-0.01958v-0.01958v-0.02021h0.01107v-0.01958v-0.01958v-0.01958v-0.01958c0,-0.03917 0.2451,-12.07307 2.52694,-16.7805c2.21595,-4.56288 21.8079,-14.15462 21.86324,-14.18073c0.57876,-0.28227 0.65625,-0.79395 0.17816,-1.13559c-0.47861,-0.3348 -1.33516,-0.3805 -1.91444,-0.09854c-0.05535,0.02611 -20.31619,9.93338 -22.75036,14.9753zM291.84769,274.999c0.75798,0 1.36994,-0.36123 1.36994,-0.80825c0,-0.43956 -0.61197,-0.80048 -1.36994,-0.80048h-53.4115c-0.7564,0 -1.36889,0.36091 -1.36889,0.80048c0,0.44702 0.61197,0.80825 1.36889,0.80825zM303.99324,274.999c0.74533,0 1.36889,-0.36123 1.36889,-0.80825c0,-0.43956 -0.62356,-0.80048 -1.36889,-0.80048h-6.67947c-0.75745,0 -1.36942,0.36091 -1.36942,0.80048c0,0.44702 0.61197,0.80825 1.36942,0.80825zM215.50398,274.91973c0.75745,0 1.36994,-0.36123 1.36994,-0.80732c0,-0.4464 -0.61197,-0.80763 -1.36994,-0.80763h-25.3026c-0.75745,0 -1.36994,0.36123 -1.36994,0.80763c0,0.44609 0.6125,0.80732 1.36994,0.80732zM270.41879,272.23479c0.75798,0 1.36994,-0.36123 1.36994,-0.80794c0,-0.4464 -0.61197,-0.80763 -1.36994,-0.80763h-65.92391c-0.7564,0 -1.36889,0.36123 -1.36889,0.80763c0,0.44671 0.6125,0.80794 1.36889,0.80794zM263.61808,184.86461l24.93521,-7.89784c0.4122,0.22942 0.89133,0.42029 1.39156,0.57106l-6.3669,23.76626l-0.09962,-0.03264h-0.01107l-0.10068,-0.03264l-0.07748,-0.0199l-0.02214,-0.00653l-0.11122,-0.03264l-0.05535,-0.01306l-0.05587,-0.01958l-0.11069,-0.02611l-0.02267,-0.00653l-0.08855,-0.02611c-9.42937,-2.4291 -33.80901,-2.42257 -37.31479,-2.42257c-2.67242,0 -28.6202,0 -37.60417,2.50122l-0.05535,0.01306l-0.11069,0.03264l-0.02214,0.00653l-0.07854,0.0199l-0.09962,0.03264h-0.01107l-0.09962,0.03264l-6.50131,-24.25836c0.16657,-0.0858 0.33366,-0.17098 0.47808,-0.26299l0.15602,-0.09171l25.83708,8.17358l17.29904,-16.59025c0.23403,0.01306 0.47914,0.01958 0.72424,0.01958h0.02214h0.01107h0.01107h0.01107h0.02214h0.01107h0.01107h0.01107h0.01107h0.02214h0.01107h0.01107h0.01107h0.02214h0.01107h0.01107h0.01107h0.02214h0.01107h0.01107h0.0116h0.02214h0.01107h0.01107h0.01107h0.02214l0.01107,-0.00653h0.01107h0.01107h0.02214h0.01107h0.01107h0.01107h0.02214h0.01107h0.01107h0.01107h0.01107l0.02214,-0.00653h0.01107h0.01107h0.02214h0.0116h0.01107h0.03321h0.01107l0.01107,-0.00653h0.01107h0.01107h0.02214h0.01107h0.01107h0.01107h0.01107l0.01107,-0.00653h0.01107h0.01107h0.01107h0.01107h0.02214h0.01107l0.01107,-0.00653h0.01107h0.02214z" fill="#000000" fill-rule="evenodd" stroke="none" stroke-width="1"/><text transform="translate(64.07349,220.752) scale(0.78169,0.78169)" font-size="40" xml:space="preserve" fill="#ff0000" fill-rule="nonzero" stroke-opacity="0" stroke="#000000" stroke-width="0" stroke-linecap="butt" stroke-linejoin="miter" stroke-miterlimit="10" stroke-dasharray="" stroke-dashoffset="0" font-family="Sans Serif" font-weight="normal" text-anchor="start" style="mix-blend-mode: normal"><tspan x="0" dy="0">BRIGHT</tspan></text><text transform="translate(311.64048,220.60363) scale(0.74851,0.74851)" font-size="40" xml:space="preserve" fill="#f4f700" fill-rule="nonzero" stroke-opacity="0" stroke="#000000" stroke-width="0" stroke-linecap="butt" stroke-linejoin="miter" stroke-miterlimit="10" stroke-dasharray="" stroke-dashoffset="0" font-family="Sans Serif" font-weight="normal" text-anchor="start" style="mix-blend-mode: normal"><tspan x="0" dy="0">TECH</tspan></text></g></g></g></svg>